<svg width="73" height="31" viewBox="0 0 73 31" fill="none" xmlns="http://www.w3.org/2000/svg">
<path fill-rule="evenodd" clip-rule="evenodd" d="M25.0608 0.586559C21.5305 0.777214 16.3199 1.46809 14.9824 1.923C14.7072 2.01662 12.4732 3.35234 10.0179 4.89137C7.56282 6.43054 5.46866 7.68969 5.3643 7.68969C5.25995 7.68969 4.84251 7.85421 4.43652 8.05509C2.05773 9.23326 0.287082 13.2988 0.0170387 18.2027C-0.108048 20.4751 0.455627 22.2351 1.70678 23.4785C2.67287 24.4386 3.3166 24.6457 5.60561 24.7331L7.5937 24.8089L7.83687 25.521C8.26087 26.7631 8.70675 27.4778 9.62939 28.3949C12.5214 31.2688 17.0056 31.1911 19.8602 28.2173C20.662 27.3819 21.055 26.7317 21.4267 25.6251L21.725 24.7366L36.5907 24.7727L51.4564 24.8089L51.7379 25.6378C52.7297 28.5575 55.4029 30.4605 58.5124 30.4605C60.4908 30.4605 61.9186 29.9055 63.3548 28.5783C64.2891 27.7145 64.849 26.8766 65.2458 25.7476L65.5756 24.8089L68.8344 24.7312C70.6268 24.6885 72.108 24.6404 72.1261 24.6247C72.1441 24.6088 72.2875 24.3454 72.4446 24.0393C72.8761 23.1989 73.0691 21.6267 72.9779 19.6945C72.8456 16.8888 72.1021 14.8833 70.6231 13.3422C69.2177 11.878 67.3671 11.2323 60.3301 9.75068C53.3121 8.27302 53.8026 8.42902 51.6567 6.99242C47.9566 4.51546 44.3079 2.565 41.9296 1.79244C39.0328 0.85166 30.9091 0.270883 25.0608 0.586559ZM28.7061 5.8428V8.82624H18.4529C9.80208 8.82624 8.24386 8.79626 8.48174 8.63445C8.63685 8.52903 10.325 7.46792 12.2332 6.27668L15.7026 4.11057L17.6502 3.77116C20.7142 3.23727 23.9521 2.92884 26.9549 2.88494L28.7061 2.85937V5.8428ZM33.9955 3.00016C36.2366 3.14791 38.1813 3.3576 39.4278 3.58591C41.8657 4.03243 45.2315 5.61294 49.1314 8.14218L50.1863 8.82624H40.6613H31.1364V5.8428V2.85937L31.5295 2.8615C31.7457 2.86264 32.8554 2.925 33.9955 3.00016ZM60.4423 12.1442C64.8541 13.1129 67.2613 13.7986 68.1594 14.3429C69.8977 15.396 70.962 18.434 70.6315 21.3993L70.5207 22.3938L68.0679 22.4325L65.6151 22.4713L65.5193 21.9082C65.4667 21.5985 65.2058 20.8937 64.9397 20.3419C63.0814 16.4884 58.2711 15.113 54.6688 17.4055C53.1647 18.3626 51.9449 20.0628 51.5536 21.7476L51.3871 22.4648H36.578H21.7689L21.5928 21.7189C21.0863 19.5734 19.3045 17.5374 17.2572 16.7643C15.3089 16.0285 13.3874 16.1287 11.4608 17.0661C9.59208 17.9753 8.32563 19.52 7.74395 21.5993L7.50178 22.4648L6.1314 22.4639C5.37774 22.4635 4.52301 22.3975 4.23195 22.3172C3.57778 22.1366 2.80182 21.2711 2.55236 20.4434C2.02685 18.7006 2.74521 14.2312 3.92316 11.9147L4.26697 11.2384L30.4605 11.2754L56.654 11.3124L60.4423 12.1442ZM16.7466 19.109C20.2889 20.8313 20.277 25.946 16.7269 27.6787C16.0152 28.0259 15.7482 28.0761 14.625 28.0737C13.577 28.0714 13.2154 28.0106 12.6756 27.746C11.6259 27.2315 10.8895 26.5133 10.4016 25.5284C9.09531 22.8914 10.2981 19.9201 13.0949 18.875C14.0962 18.5008 15.7083 18.6041 16.7466 19.109ZM60.4675 19.0184C61.4009 19.4312 62.3161 20.3172 62.8103 21.2865C63.1821 22.0157 63.23 22.2554 63.23 23.3882C63.23 24.5242 63.1827 24.7598 62.8058 25.4988C62.3281 26.4359 61.3993 27.3306 60.4423 27.7757C59.5273 28.2015 57.4976 28.2015 56.5825 27.7757C53.2083 26.206 52.722 21.7319 55.6888 19.5541C56.0625 19.2799 56.6576 18.9601 57.0114 18.8438C57.9026 18.5504 59.6035 18.6363 60.4675 19.0184Z" fill="#DA2128"/>
</svg>
