<svg width="163" height="22" viewBox="0 0 163 22" fill="none" xmlns="http://www.w3.org/2000/svg">
<path d="M10.7221 21.0848C3.8214 21.0848 0.916687 18.133 0.916687 10.8045C0.916687 4.06085 4.13542 0.916687 10.8752 0.916687H18.6629V5.16385H11.2912C7.45229 5.16385 6.15694 6.78499 6.15694 10.8045C6.15694 15.2165 7.42481 16.8337 11.4208 16.8337H18.6629V21.0809H10.7221V21.0848Z" fill="white"/>
<path d="M42.5452 0.916687V21.0848H37.4973V12.8142H28.2611V21.0848H23.1857V0.916687H28.2611V8.40613H37.4973V0.916687H42.5452Z" fill="white"/>
<path d="M46.2441 21.0848L53.133 0.916687H58.6363C59.6058 0.916687 60.1239 1.24249 60.489 2.27876L67.2169 21.0848H61.8157L56.391 5.68198C56.2065 5.16384 55.92 5.16384 55.763 5.64666L50.5737 21.0809H46.2402L46.2441 21.0848Z" fill="white"/>
<path d="M85.3625 20.1741L75.4354 9.54054C75.2273 9.31287 75.0154 9.41101 75.0154 9.7682V21.0848H70.9409V0.916687H73.5552C74.5993 0.916687 75.0978 1.04623 75.7769 1.79203L85.7314 12.4256C85.9669 12.6847 86.2261 12.5238 86.2261 12.1038V0.916687H90.3005V20.2723C90.3005 20.7904 90.065 21.0848 89.645 21.0848H87.3722C86.5125 21.0848 85.9865 20.8571 85.3585 20.1741" fill="white"/>
<path d="M113.834 21.0848H104.515C97.2803 21.0848 94.3241 18.2036 94.3241 10.7574C94.3241 3.96271 97.6259 0.952019 104.671 0.952019L114.493 0.916687V5.15993H104.99C100.923 5.15993 99.6554 5.90181 99.6554 10.7574C99.6554 16.0997 100.872 16.8416 105.119 16.8416H109.527C109.711 16.8416 109.845 16.6806 109.845 16.453V13.4109C109.845 13.1832 109.711 13.0223 109.527 13.0223H106.014V8.97923H113.829C114.253 8.97923 114.489 9.26969 114.489 9.78783V20.2723C114.489 20.7904 114.253 21.0809 113.829 21.0809" fill="white"/>
<path d="M118.213 21.0848L125.103 0.916687H130.606C131.576 0.916687 132.094 1.24249 132.458 2.27876L139.19 21.0848H133.793L128.368 5.68198C128.188 5.16384 127.897 5.16384 127.74 5.64666L122.551 21.0809H118.218L118.213 21.0848Z" fill="white"/>
<path d="M157.317 20.1741L147.385 9.54054C147.177 9.31287 146.966 9.41101 146.966 9.7682V21.0848H142.891V0.916687H145.501C146.546 0.916687 147.043 1.04623 147.723 1.79203L157.681 12.4256C157.917 12.6847 158.175 12.5238 158.175 12.1038V0.916687H162.25V20.2723C162.25 20.7904 162.014 21.0848 161.595 21.0848H159.326C158.462 21.0848 157.936 20.8571 157.312 20.1741" fill="white"/>
</svg>
