<svg width="50" height="50" viewBox="0 0 50 50" fill="none" xmlns="http://www.w3.org/2000/svg">
<path fill-rule="evenodd" clip-rule="evenodd" d="M22.7575 0.059164C17.926 0.532197 13.4606 2.31213 9.54533 5.32552C7.63871 6.79293 5.16268 9.55072 3.73181 11.8004C3.11385 12.772 1.91093 15.234 1.48 16.4089C0.998184 17.7228 0.484656 19.7305 0.231954 21.2884C-0.0773179 23.1952 -0.0773179 26.8155 0.231954 28.7223C0.66924 31.4179 1.36099 33.597 2.54503 36.0095C3.83869 38.6452 5.18382 40.5134 7.33786 42.6663C9.49199 44.8191 11.3613 46.1635 13.9985 47.4564C16.4123 48.6398 18.5927 49.3311 21.2898 49.7682C23.1977 50.0773 26.8201 50.0773 28.728 49.7682C31.4251 49.3311 33.6055 48.6398 36.0194 47.4564C38.6565 46.1635 40.5258 44.8191 42.68 42.6663C44.834 40.5134 46.1791 38.6452 47.4728 36.0095C48.332 34.2589 48.7642 33.1115 49.2271 31.3521C49.8436 29.009 50 27.7246 50 25.0054C50 22.2861 49.8436 21.0017 49.2271 18.6587C48.7642 16.8993 48.332 15.7519 47.4728 14.0012C46.1791 11.3656 44.834 9.49732 42.68 7.34441C40.5258 5.19161 38.6565 3.84724 36.0194 2.55432C33.6078 1.37204 31.3843 0.666692 28.7769 0.25675C27.3383 0.0306021 24.126 -0.0748423 22.7575 0.059164ZM28.3365 1.8748C37.6824 3.24245 45.3375 10.1328 47.6615 19.2692C48.1941 21.3629 48.3431 22.6169 48.3431 25.0054C48.3431 27.3938 48.1941 28.6478 47.6615 30.7415C45.5536 39.0282 39.0398 45.5384 30.7483 47.645C28.6534 48.1773 27.3987 48.3262 25.0089 48.3262C22.6191 48.3262 21.3644 48.1773 19.2695 47.645C10.9781 45.5384 4.46418 39.0282 2.35634 30.7415C1.82372 28.6478 1.67476 27.3938 1.67476 25.0054C1.67476 23.4725 1.72282 22.5841 1.85201 21.7286C3.47676 10.9714 11.9851 2.85188 22.8068 1.73141C24.0473 1.60298 27.0024 1.67956 28.3365 1.8748ZM23.1494 5.05897C18.5671 5.49425 14.1567 7.58064 10.8654 10.87C5.32769 16.4046 3.50338 24.6104 6.2007 31.8524C7.23549 34.6308 8.8022 37.0787 10.8654 39.1408C16.4032 44.6754 24.6137 46.4986 31.8599 43.8028C34.6399 42.7686 37.0891 41.2028 39.1524 39.1408C44.6901 33.6061 46.5144 25.4003 43.8171 18.1583C42.7823 15.3799 41.2156 12.9321 39.1524 10.87C34.9287 6.64875 29.016 4.50172 23.1494 5.05897ZM26.3404 6.71576C32.6476 7.21344 38.154 10.7646 41.1254 16.2509C41.5342 17.0058 42.1363 18.2878 42.1363 18.4036C42.1363 18.4836 35.2932 20.6954 34.6981 20.8076C33.8779 20.9624 32.1836 20.9615 31.371 20.8059C31.0213 20.739 30.1487 20.4685 29.4319 20.2049C27.7633 19.5912 27.1945 19.447 25.9899 19.3323C24.8879 19.2274 23.4109 19.3317 22.4375 19.5832C22.1023 19.6698 21.2667 19.9573 20.5806 20.2221C19.8945 20.487 19.0577 20.7698 18.7211 20.8507C17.8158 21.0682 16.355 21.138 15.4591 21.0063C14.7406 20.9008 7.81801 19.1057 7.70889 18.9966C7.63832 18.926 8.03343 17.9705 8.62182 16.7889C11.4482 11.1126 17.1546 7.23868 23.443 6.72701C24.9236 6.6066 24.9547 6.6064 26.3404 6.71576ZM42.8973 20.9216C43.0111 21.4193 43.132 22.0465 43.1662 22.3155L43.2283 22.8045L41.9727 23.2325C36.3086 25.1629 31.4531 29.3378 28.6404 34.6961C27.3668 37.1223 26.417 40.0628 26.1308 42.4653C26.0204 43.3929 26.0184 43.3946 25.0089 43.3946C23.9994 43.3946 23.9974 43.3929 23.887 42.4653C23.5025 39.2367 22.0712 35.4994 20.0688 32.4953C17.237 28.2467 12.8577 24.8721 8.04742 23.2319L6.79419 22.8045L6.85614 22.2666C6.8902 21.9707 6.97388 21.4865 7.04209 21.1906C7.14417 20.748 7.19918 20.6583 7.35254 20.6848C7.45511 20.7025 8.9263 21.0864 10.6219 21.5379C14.9156 22.6815 15.0159 22.7006 16.7388 22.7023C18.4699 22.7041 19.1721 22.5577 21.2105 21.7703C22.8447 21.139 23.6058 20.9775 24.96 20.9741C26.3659 20.9707 26.9992 21.0975 28.7273 21.7284C30.6552 22.4322 31.4262 22.5885 32.9854 22.5918C34.6886 22.5954 35.211 22.4731 39.1652 21.145C40.9877 20.5329 42.5265 20.0287 42.5847 20.0244C42.643 20.0202 42.7837 20.4239 42.8973 20.9216ZM24.3238 22.5621C22.7243 22.7761 21.2838 23.8329 20.5267 25.3477C19.0401 28.3224 20.9714 31.9355 24.3238 32.4509C27.2039 32.8937 30.0003 30.4861 30.0003 27.5637C30.0003 24.5216 27.3212 22.161 24.3238 22.5621ZM26.2186 24.4217C28.0668 25.1129 28.8806 27.4274 27.8856 29.1625C27.055 30.6109 25.1775 31.2251 23.6756 30.5396C22.7249 30.1057 22.056 29.3177 21.7826 28.3094C21.3746 26.8044 22.3036 24.9907 23.7715 24.4265C24.4613 24.1613 25.5168 24.1593 26.2186 24.4217ZM7.78562 24.9039C14.832 27.4161 20.2522 33.5533 21.9129 40.9003C22.1125 41.7835 22.2685 42.6878 22.2685 42.9619V43.178L21.2164 42.9522C17.8072 42.2208 14.6199 40.5082 12.1719 38.0926C9.19916 35.1593 7.34236 31.4708 6.81474 27.4507C6.69152 26.5123 6.57642 24.5163 6.64542 24.5163C6.67449 24.5163 7.18753 24.6907 7.78562 24.9039ZM43.3622 25.6167C43.3277 26.222 43.256 27.0473 43.2031 27.4507C42.2029 35.0702 36.3936 41.3232 28.8014 42.9522L27.7493 43.178V42.9619C27.7493 42.6878 27.9053 41.7835 28.1049 40.9003C29.5729 34.406 33.9527 28.8437 39.9185 25.8973C40.953 25.3864 43.0642 24.5381 43.3434 24.5213C43.3883 24.5185 43.3969 25.0115 43.3622 25.6167Z" fill="#DA2128"/>
</svg>
